# xmcd CD database file
#
# Track frame offsets:
#	150
#	11815
#	32987
#	62250
#	90240
#	101947
#	115305
#	132915
#	153340
#	168600
#	185134
#	202325
#	228965
#	240467
#
# Disc length: 3392 seconds
#
# Revision: 1
# Processed by: cddbd v1.5PL3 Copyright (c) Steve Scherf et al.
# Submitted via: CDex 1.51
#
DISCID=be0d3e0e
DTITLE=Jef Lee Johnson - Communion
DYEAR=1998
DGENRE=Jazz
TTITLE0=Face
TTITLE1=Communion
TTITLE2=How True Are You
TTITLE3=Just Have To Be There
TTITLE4=Time To Kill
TTITLE5=Let It Ring
TTITLE6=Tell Tale Heart
TTITLE7=Cannot Get With This
TTITLE8=Giant Steps
TTITLE9=Suspicious
TTITLE10=Stroll On
TTITLE11=You Jump'd the Gun, again
TTITLE12=feel SO Fine
TTITLE13=jungle
EXTD=YEAR: 1998
EXTT0=
EXTT1=
EXTT2=
EXTT3=
EXTT4=
EXTT5=
EXTT6=
EXTT7=
EXTT8=
EXTT9=
EXTT10=
EXTT11=
EXTT12=
EXTT13=
PLAYORDER=
